<svg width="475" height="300" viewBox="0 0 475 300" fill="none" xmlns="http://www.w3.org/2000/svg">
<g clip-path="url(#clip0_59_231)">
<path d="M418.018 274.361L418.481 263.965C423.3 261.389 428.676 260.028 434.141 260.001C426.62 266.15 427.56 278.004 422.46 286.273C419.199 291.473 413.749 294.907 407.651 295.606L401.357 299.459C399.609 289.715 402.216 279.694 408.49 272.037C410.25 269.931 412.268 268.056 414.497 266.455C416.005 270.43 418.018 274.361 418.018 274.361Z" fill="#F2F2F2"/>
<path d="M99.8417 262.969L84.6527 258.37C82.6607 250.277 82.6743 241.82 84.6924 233.734C90.9473 247.165 108.819 250.241 119.12 260.891C125.575 267.67 128.598 277.017 127.334 286.292L130.658 297.045C115.6 295.958 101.772 288.332 92.8186 276.176C90.3701 272.781 88.3587 269.092 86.832 265.195C93.274 264.465 99.8417 262.969 99.8417 262.969Z" fill="#F2F2F2"/>
<path d="M365.388 297.759C365.386 298.074 365.261 298.375 365.039 298.599C364.818 298.82 364.518 298.943 364.205 298.942H359.45C358.799 298.944 358.269 298.418 358.267 297.767V153.951C358.267 150.781 357.203 148.208 355.895 148.202H59.8752C58.5622 148.208 57.5034 150.781 57.4975 153.951V296.878C57.4955 297.487 57.033 297.995 56.427 298.055C55.4688 298.15 54.5107 298.232 53.5584 298.309C53.5347 298.309 53.5111 298.315 53.4874 298.315C52.967 298.363 52.4465 298.398 51.926 298.439H51.9201C51.648 297.949 51.3877 297.446 51.1216 296.943C51.0363 296.772 50.9917 296.584 50.9915 296.393V146.493C50.9915 145.618 51.0269 144.736 51.0861 143.867C51.1705 142.673 51.3186 141.485 51.5297 140.306C52.5293 134.812 54.7886 131.091 57.3556 131.08H358.409C358.784 131.082 359.154 131.161 359.497 131.31C360.002 131.534 360.458 131.853 360.84 132.251C361.359 132.79 361.802 133.397 362.159 134.055C363.425 136.284 364.33 139.609 364.649 143.477C364.649 143.512 364.655 143.548 364.655 143.583C364.738 144.541 364.779 145.517 364.773 146.493L364.856 159.168L364.909 166.727L365.069 190.445L365.128 198.867L365.388 297.759Z" fill="#E6E6E6"/>
<path d="M255.525 87.2325H225.357C224.468 87.2338 223.749 87.9551 223.75 88.8438V136.5H257.136V88.8438C257.137 87.9544 256.416 87.233 255.527 87.2325H255.525ZM240.543 114.31C238.579 114.301 236.989 112.712 236.98 110.748V105.251C236.98 103.284 238.575 101.689 240.543 101.689C242.51 101.689 244.105 103.284 244.105 105.251V110.748C244.096 112.712 242.506 114.301 240.543 114.31Z" fill="#CCCCCC"/>
<path d="M223.646 134.976V139.574C223.647 140.07 224.049 140.471 224.545 140.472H256.341C256.836 140.47 257.237 140.069 257.24 139.574V134.976H223.646Z" fill="#3F3D56"/>
<path d="M305.48 12.8595H176.525C174.218 12.8632 172.349 14.7322 172.345 17.039V104.059C172.347 106.366 174.217 108.236 176.525 108.238H305.48C307.788 108.236 309.658 106.366 309.66 104.059V17.039C309.656 14.7322 307.787 12.8632 305.48 12.8595Z" fill="#E6E6E6"/>
<path d="M304.404 15.8783H177.602C176.367 15.881 175.367 16.883 175.367 18.1182V102.981C175.369 104.215 176.368 105.214 177.602 105.216H304.404C305.637 105.214 306.637 104.215 306.639 102.981V18.1181C306.639 16.883 305.639 15.881 304.404 15.8783Z" fill="white"/>
<path d="M279.705 142.072H204.265C203.498 142.072 202.877 141.451 202.877 140.685C202.877 140.589 202.887 140.493 202.907 140.399L204.077 134.839C204.215 134.198 204.78 133.74 205.435 133.737H278.535C279.19 133.74 279.755 134.198 279.892 134.839L281.063 140.399C281.221 141.149 280.741 141.885 279.991 142.043C279.897 142.062 279.801 142.072 279.705 142.072Z" fill="#CCCCCC"/>
<path d="M208.006 134.738H206.26C206.1 134.738 205.971 134.868 205.971 135.027V135.844C205.971 136.003 206.1 136.132 206.26 136.132H208.006C208.165 136.132 208.294 136.003 208.294 135.844V135.027C208.294 134.868 208.165 134.738 208.006 134.738Z" fill="#E6E6E6"/>
<path d="M212.653 134.738H210.907C210.747 134.738 210.618 134.868 210.618 135.027V135.844C210.618 136.003 210.747 136.132 210.907 136.132H212.653C212.812 136.132 212.941 136.003 212.941 135.844V135.027C212.941 134.868 212.812 134.738 212.653 134.738Z" fill="#E6E6E6"/>
<path d="M217.3 134.738H215.554C215.394 134.738 215.265 134.868 215.265 135.027V135.844C215.265 136.003 215.394 136.132 215.554 136.132H217.3C217.459 136.132 217.588 136.003 217.588 135.844V135.027C217.588 134.868 217.459 134.738 217.3 134.738Z" fill="#E6E6E6"/>
<path d="M221.946 134.738H220.2C220.041 134.738 219.912 134.868 219.912 135.027V135.844C219.912 136.003 220.041 136.132 220.2 136.132H221.946C222.106 136.132 222.235 136.003 222.235 135.844V135.027C222.235 134.868 222.106 134.738 221.946 134.738Z" fill="#E6E6E6"/>
<path d="M226.594 134.738H224.848C224.688 134.738 224.559 134.868 224.559 135.027V135.844C224.559 136.003 224.688 136.132 224.848 136.132H226.594C226.753 136.132 226.882 136.003 226.882 135.844V135.027C226.882 134.868 226.753 134.738 226.594 134.738Z" fill="#E6E6E6"/>
<path d="M231.24 134.738H229.494C229.335 134.738 229.206 134.868 229.206 135.027V135.844C229.206 136.003 229.335 136.132 229.494 136.132H231.24C231.4 136.132 231.529 136.003 231.529 135.844V135.027C231.529 134.868 231.4 134.738 231.24 134.738Z" fill="#E6E6E6"/>
<path d="M235.887 134.738H234.141C233.982 134.738 233.853 134.868 233.853 135.027V135.844C233.853 136.003 233.982 136.132 234.141 136.132H235.887C236.047 136.132 236.176 136.003 236.176 135.844V135.027C236.176 134.868 236.047 134.738 235.887 134.738Z" fill="#E6E6E6"/>
<path d="M240.534 134.738H238.788C238.629 134.738 238.5 134.868 238.5 135.027V135.844C238.5 136.003 238.629 136.132 238.788 136.132H240.534C240.694 136.132 240.823 136.003 240.823 135.844V135.027C240.823 134.868 240.694 134.738 240.534 134.738Z" fill="#E6E6E6"/>
<path d="M245.181 134.738H243.435C243.276 134.738 243.147 134.868 243.147 135.027V135.844C243.147 136.003 243.276 136.132 243.435 136.132H245.181C245.341 136.132 245.47 136.003 245.47 135.844V135.027C245.47 134.868 245.341 134.738 245.181 134.738Z" fill="#E6E6E6"/>
<path d="M249.828 134.738H248.082C247.923 134.738 247.794 134.868 247.794 135.027V135.844C247.794 136.003 247.923 136.132 248.082 136.132H249.828C249.988 136.132 250.117 136.003 250.117 135.844V135.027C250.117 134.868 249.988 134.738 249.828 134.738Z" fill="#E6E6E6"/>
<path d="M254.475 134.738H252.729C252.57 134.738 252.441 134.868 252.441 135.027V135.844C252.441 136.003 252.57 136.132 252.729 136.132H254.475C254.635 136.132 254.764 136.003 254.764 135.844V135.027C254.764 134.868 254.635 134.738 254.475 134.738Z" fill="#E6E6E6"/>
<path d="M259.122 134.738H257.376C257.217 134.738 257.088 134.868 257.088 135.027V135.844C257.088 136.003 257.217 136.132 257.376 136.132H259.122C259.282 136.132 259.411 136.003 259.411 135.844V135.027C259.411 134.868 259.282 134.738 259.122 134.738Z" fill="#E6E6E6"/>
<path d="M263.769 134.738H262.023C261.864 134.738 261.734 134.868 261.734 135.027V135.844C261.734 136.003 261.864 136.132 262.023 136.132H263.769C263.929 136.132 264.058 136.003 264.058 135.844V135.027C264.058 134.868 263.929 134.738 263.769 134.738Z" fill="#E6E6E6"/>
<path d="M268.416 134.738H266.67C266.511 134.738 266.381 134.868 266.381 135.027V135.844C266.381 136.003 266.511 136.132 266.67 136.132H268.416C268.576 136.132 268.705 136.003 268.705 135.844V135.027C268.705 134.868 268.576 134.738 268.416 134.738Z" fill="#E6E6E6"/>
<path d="M273.063 134.738H271.317C271.158 134.738 271.028 134.868 271.028 135.027V135.844C271.028 136.003 271.158 136.132 271.317 136.132H273.063C273.223 136.132 273.352 136.003 273.352 135.844V135.027C273.352 134.868 273.223 134.738 273.063 134.738Z" fill="#E6E6E6"/>
<path d="M277.71 134.738H275.964C275.805 134.738 275.675 134.868 275.675 135.027V135.844C275.675 136.003 275.805 136.132 275.964 136.132H277.71C277.87 136.132 277.999 136.003 277.999 135.844V135.027C277.999 134.868 277.87 134.738 277.71 134.738Z" fill="#E6E6E6"/>
<path d="M207.951 137.062H206.205C206.045 137.062 205.916 137.191 205.916 137.351V138.167C205.916 138.327 206.045 138.456 206.205 138.456H207.951C208.11 138.456 208.239 138.327 208.239 138.167V137.351C208.239 137.191 208.11 137.062 207.951 137.062Z" fill="#E6E6E6"/>
<path d="M212.598 137.062H210.852C210.692 137.062 210.563 137.191 210.563 137.351V138.167C210.563 138.327 210.692 138.456 210.852 138.456H212.598C212.757 138.456 212.886 138.327 212.886 138.167V137.351C212.886 137.191 212.757 137.062 212.598 137.062Z" fill="#E6E6E6"/>
<path d="M217.245 137.062H215.499C215.339 137.062 215.21 137.191 215.21 137.351V138.167C215.21 138.327 215.339 138.456 215.499 138.456H217.245C217.404 138.456 217.533 138.327 217.533 138.167V137.351C217.533 137.191 217.404 137.062 217.245 137.062Z" fill="#E6E6E6"/>
<path d="M221.892 137.062H220.146C219.986 137.062 219.857 137.191 219.857 137.351V138.167C219.857 138.327 219.986 138.456 220.146 138.456H221.892C222.051 138.456 222.18 138.327 222.18 138.167V137.351C222.18 137.191 222.051 137.062 221.892 137.062Z" fill="#E6E6E6"/>
<path d="M226.539 137.062H224.793C224.633 137.062 224.504 137.191 224.504 137.351V138.167C224.504 138.327 224.633 138.456 224.793 138.456H226.539C226.698 138.456 226.827 138.327 226.827 138.167V137.351C226.827 137.191 226.698 137.062 226.539 137.062Z" fill="#E6E6E6"/>
<path d="M231.186 137.062H229.44C229.28 137.062 229.151 137.191 229.151 137.351V138.167C229.151 138.327 229.28 138.456 229.44 138.456H231.186C231.345 138.456 231.474 138.327 231.474 138.167V137.351C231.474 137.191 231.345 137.062 231.186 137.062Z" fill="#E6E6E6"/>
<path d="M235.832 137.062H234.086C233.927 137.062 233.798 137.191 233.798 137.351V138.167C233.798 138.327 233.927 138.456 234.086 138.456H235.832C235.992 138.456 236.121 138.327 236.121 138.167V137.351C236.121 137.191 235.992 137.062 235.832 137.062Z" fill="#E6E6E6"/>
<path d="M240.479 137.062H238.733C238.574 137.062 238.445 137.191 238.445 137.351V138.167C238.445 138.327 238.574 138.456 238.733 138.456H240.479C240.639 138.456 240.768 138.327 240.768 138.167V137.351C240.768 137.191 240.639 137.062 240.479 137.062Z" fill="#E6E6E6"/>
<path d="M245.126 137.062H243.38C243.221 137.062 243.092 137.191 243.092 137.351V138.167C243.092 138.327 243.221 138.456 243.38 138.456H245.126C245.286 138.456 245.415 138.327 245.415 138.167V137.351C245.415 137.191 245.286 137.062 245.126 137.062Z" fill="#E6E6E6"/>
<path d="M249.773 137.062H248.027C247.868 137.062 247.739 137.191 247.739 137.351V138.167C247.739 138.327 247.868 138.456 248.027 138.456H249.773C249.933 138.456 250.062 138.327 250.062 138.167V137.351C250.062 137.191 249.933 137.062 249.773 137.062Z" fill="#E6E6E6"/>
<path d="M254.42 137.062H252.674C252.515 137.062 252.386 137.191 252.386 137.351V138.167C252.386 138.327 252.515 138.456 252.674 138.456H254.42C254.58 138.456 254.709 138.327 254.709 138.167V137.351C254.709 137.191 254.58 137.062 254.42 137.062Z" fill="#E6E6E6"/>
<path d="M259.067 137.062H257.321C257.162 137.062 257.033 137.191 257.033 137.351V138.167C257.033 138.327 257.162 138.456 257.321 138.456H259.067C259.227 138.456 259.356 138.327 259.356 138.167V137.351C259.356 137.191 259.227 137.062 259.067 137.062Z" fill="#E6E6E6"/>
<path d="M263.714 137.062H261.968C261.809 137.062 261.68 137.191 261.68 137.351V138.167C261.68 138.327 261.809 138.456 261.968 138.456H263.714C263.874 138.456 264.003 138.327 264.003 138.167V137.351C264.003 137.191 263.874 137.062 263.714 137.062Z" fill="#E6E6E6"/>
<path d="M268.361 137.062H266.615C266.456 137.062 266.327 137.191 266.327 137.351V138.167C266.327 138.327 266.456 138.456 266.615 138.456H268.361C268.521 138.456 268.65 138.327 268.65 138.167V137.351C268.65 137.191 268.521 137.062 268.361 137.062Z" fill="#E6E6E6"/>
<path d="M273.008 137.062H271.262C271.103 137.062 270.974 137.191 270.974 137.351V138.167C270.974 138.327 271.103 138.456 271.262 138.456H273.008C273.168 138.456 273.297 138.327 273.297 138.167V137.351C273.297 137.191 273.168 137.062 273.008 137.062Z" fill="#E6E6E6"/>
<path d="M277.655 137.062H275.909C275.75 137.062 275.62 137.191 275.62 137.351V138.167C275.62 138.327 275.75 138.456 275.909 138.456H277.655C277.815 138.456 277.944 138.327 277.944 138.167V137.351C277.944 137.191 277.815 137.062 277.655 137.062Z" fill="#E6E6E6"/>
<path d="M246.521 139.85H228.51C228.351 139.85 228.221 139.979 228.221 140.139V140.955C228.221 141.115 228.351 141.244 228.51 141.244H246.521C246.68 141.244 246.809 141.115 246.809 140.955V140.139C246.809 139.979 246.68 139.85 246.521 139.85Z" fill="#E6E6E6"/>
<path d="M298.03 27.5705H179.382C179.121 27.5648 178.915 27.3489 178.92 27.0883C178.926 26.8358 179.129 26.6324 179.382 26.6268H298.03C298.29 26.6326 298.497 26.8485 298.491 27.109C298.486 27.3616 298.282 27.5649 298.03 27.5705Z" fill="#CACACA"/>
<path d="M187.458 24.2177C188.985 24.2177 190.223 22.9522 190.223 21.391C190.223 19.8298 188.985 18.5642 187.458 18.5642C185.931 18.5642 184.693 19.8298 184.693 21.391C184.693 22.9522 185.931 24.2177 187.458 24.2177Z" fill="#CCCCCC"/>
<path d="M197.011 24.2177C198.538 24.2177 199.776 22.9522 199.776 21.391C199.776 19.8298 198.538 18.5642 197.011 18.5642C195.483 18.5642 194.245 19.8298 194.245 21.391C194.245 22.9522 195.483 24.2177 197.011 24.2177Z" fill="#CCCCCC"/>
<path d="M206.563 24.2177C208.09 24.2177 209.328 22.9522 209.328 21.391C209.328 19.8298 208.09 18.5642 206.563 18.5642C205.036 18.5642 203.798 19.8298 203.798 21.391C203.798 22.9522 205.036 24.2177 206.563 24.2177Z" fill="#CCCCCC"/>
<path d="M238.584 34.7247L238.201 33.6051L287.208 8.14148L287.591 9.26111L238.584 34.7247Z" fill="#3F3D56"/>
<path d="M386.449 81.889L386.066 80.7693L415.555 55.4347L415.938 56.5537L386.449 81.889Z" fill="#3F3D56"/>
<path d="M329.793 87.7864L280.786 62.3228L281.169 61.2032L330.176 86.6668L329.793 87.7864Z" fill="#3F3D56"/>
<path d="M354.88 70.0674L326.15 22.9008L327.058 22.1419L355.787 69.3085L354.88 70.0674Z" fill="#3F3D56"/>
<path d="M377.301 8.60812L349.321 8.47919V7.29626L377.301 7.4252V8.60812Z" fill="#3F3D56"/>
<path d="M427.988 15.9455H396.64C392.394 15.9455 388.951 12.503 388.951 8.2565C388.951 4.00998 392.394 0.567505 396.64 0.567505H427.988C432.234 0.567505 435.677 4.00998 435.677 8.2565C435.677 12.503 432.234 15.9455 427.988 15.9455Z" fill="#1B194D"/>
<path d="M467.024 60.8965H435.677C431.43 60.8965 427.988 57.4541 427.988 53.2075C427.988 48.961 431.43 45.5186 435.677 45.5186H467.024C471.271 45.5186 474.713 48.961 474.713 53.2075C474.713 57.4541 471.271 60.8965 467.024 60.8965Z" fill="#1B194D"/>
<path d="M416.338 92.595L388.357 92.4666V91.2837L416.338 91.412V92.595Z" fill="#3F3D56"/>
<path d="M467.024 99.9329H435.677C431.43 99.9329 427.988 96.4904 427.988 92.2439C427.988 87.9974 431.43 84.5549 435.677 84.5549H467.024C471.271 84.5549 474.713 87.9974 474.713 92.2439C474.713 96.4904 471.271 99.9329 467.024 99.9329Z" fill="#1B194D"/>
<path d="M375.348 94.6337H344C339.754 94.6337 336.311 91.1912 336.311 86.9447C336.311 82.6982 339.754 79.2557 344 79.2557H375.348C379.594 79.2557 383.037 82.6982 383.037 86.9447C383.037 91.1912 379.594 94.6337 375.348 94.6337Z" fill="#1B194D"/>
<path d="M332.762 15.378H301.415C297.169 15.378 293.726 11.9355 293.726 7.68899C293.726 3.44248 297.169 0 301.415 0H332.762C337.009 0 340.451 3.44248 340.451 7.68899C340.451 11.9355 337.009 15.378 332.762 15.378Z" fill="#1B194D"/>
<path d="M182.929 147.38H147.441C144.828 147.38 142.709 149.499 142.709 152.112C142.709 154.725 144.828 156.844 147.441 156.844H160.453V193.514H169.916V156.844H182.929C185.542 156.844 187.66 154.725 187.66 152.112C187.66 149.499 185.542 147.38 182.929 147.38Z" fill="#3F3D56"/>
<path d="M206.351 213.823H111.432C92.4112 213.754 76.3188 199.746 73.6276 180.917L70.2677 168.558C63.3134 142.947 52.7206 118.467 38.813 95.8655C32.4564 85.5423 29.1847 75.5495 36.6159 65.9286C36.6791 65.8467 36.7414 65.7659 36.8025 65.6863C42.7628 57.9285 72.4288 56.2492 82.0998 55.9225C82.4819 55.9095 82.8654 55.9031 83.2504 55.9032H142.289C142.675 55.9032 143.058 55.9097 143.44 55.9225C154.061 56.2322 163.656 62.3475 168.421 71.8452C173.505 81.5421 172.857 93.2475 166.732 102.323C145.993 133.476 139.643 153.01 146.144 165.66C152.432 177.895 171.707 184.151 206.803 185.346C216.235 185.668 220.563 193.012 220.594 199.699C220.623 206.214 216.462 213.407 207.255 213.804C206.956 213.817 206.654 213.823 206.351 213.823Z" fill="#3F3D56"/>
<path d="M127.557 298.106H163.044C165.657 298.106 167.776 295.988 167.776 293.375C167.776 290.761 165.657 288.643 163.044 288.643H150.032V208.796H140.569V288.643H127.557C124.943 288.643 122.825 290.761 122.825 293.375C122.825 295.988 124.943 298.106 127.557 298.106Z" fill="#3F3D56"/>
<path d="M159.676 265.916L165.79 269.237L181.973 246.861L172.95 241.96L159.676 265.916Z" fill="#A0616A"/>
<path d="M162.619 257.943L173.717 261.418L171.951 266.067L179.561 277.113C180.535 278.525 180.179 280.46 178.766 281.434C177.925 282.013 176.854 282.143 175.899 281.78L162.979 276.871L162.5 271.426L159.883 275.695L155.012 273.844L162.619 257.943Z" fill="#2F2E41"/>
<path d="M175.122 40.264C175.67 44.0182 173.071 47.5055 169.316 48.0531C168.916 48.1114 168.511 48.1343 168.107 48.1215L144.537 98.2746L137.144 87.9657L161.408 40.5416C161.781 36.7454 165.161 33.9702 168.957 34.343C172.133 34.6549 174.682 37.1028 175.122 40.264Z" fill="#A0616A"/>
<path d="M96.9019 108.415C96.9019 108.415 96.2702 117.177 106.179 118.895C116.088 120.614 142.577 103.863 146.927 101.291C151.278 98.7192 159.385 66.3592 159.385 66.3592L152.334 54.4343C143.629 65.4455 136.794 75.5991 136.379 82.8066L96.9019 108.415Z" fill="#1B194D"/>
<path d="M108.341 138.595L110.481 147.79C110.481 147.79 110.502 156.269 112.004 157.832C113.495 159.388 146.282 156.264 146.282 156.264C146.282 156.264 142.806 142.601 142.852 132.263L108.341 138.595Z" fill="#A0616A"/>
<path d="M177.605 256.209L165.776 249.703C165.551 234.31 174.81 213.48 185.791 191.662C161.232 195.885 138.062 197.238 118.022 192.129C111.176 190.321 107.05 183.352 108.758 176.48C108.836 176.156 108.926 175.835 109.029 175.518C111.427 168.2 106.049 163.613 110.996 155.564C124.006 151.121 136.365 149.866 147.666 153.79L154.747 169.447L189.846 164.905C196.943 164.056 203.385 169.122 204.233 176.219C204.237 176.251 204.241 176.284 204.244 176.316C204.292 176.697 204.322 177.08 204.337 177.464C197.24 210.735 189.282 240.672 177.605 256.209Z" fill="#2F2E41"/>
<path d="M103.577 80.382L117.098 79.5837C118.267 79.5146 119.351 80.1947 119.797 81.2771L123.619 90.5404L139.499 103.666C139.499 103.666 145.787 111.667 145.802 122.001C145.816 132.334 148.032 156.252 148.032 156.252C148.032 156.252 138.856 143.336 133.192 146.771C132.228 147.355 131.889 148.551 130.88 149.155C130.377 149.456 129.213 149.163 128.705 149.465C120.9 154.098 112.761 158.625 112 157.831C110.507 156.273 108.695 148.31 108.695 148.31L96.3183 102.834C94.9596 97.9894 95.8381 92.7909 98.7133 88.6617C99.578 87.4442 100.484 86.5385 101.326 86.3887C103.216 85.9862 102.211 81.7494 103.577 80.382Z" fill="#1B194D"/>
<path d="M218.598 285.179L224.305 281.211L211.375 256.816L202.952 262.673L218.598 285.179Z" fill="#A0616A"/>
<path d="M219.46 268.811L210.515 276.806C196.292 260.958 185.539 238.731 176.427 213.489C152.552 206.497 134.548 195.22 118.83 181.83C113.497 177.318 109.5 171.522 114.048 166.026C114.261 165.769 114.483 165.52 114.714 165.28C120.083 159.762 133.7 160.813 141.675 155.758L159.491 174.801L158.37 179.906L191.834 191.241C198.57 193.602 202.117 200.977 199.756 207.713C199.745 207.746 199.733 207.779 199.721 207.812C199.596 208.175 199.455 208.532 199.299 208.884L219.46 268.811Z" fill="#2F2E41"/>
<path d="M215.27 283.57L224.406 276.375L227.245 280.459L240.658 280.418C242.374 280.413 243.77 281.799 243.775 283.515C243.778 284.536 243.28 285.493 242.441 286.076L231.093 293.965L226.329 291.285L228.373 295.855L224.095 298.83L215.27 283.57Z" fill="#2F2E41"/>
<path d="M123.543 194.989C120.051 193.506 118.421 189.474 119.904 185.981C120.062 185.609 120.252 185.251 120.473 184.912L89.8628 138.718L102.512 137.757L130.43 183.126C133.48 185.416 134.096 189.746 131.806 192.796C129.889 195.348 126.473 196.255 123.543 194.989Z" fill="#A0616A"/>
<path d="M105.943 92.7474C105.943 92.7474 98.7847 87.6562 92.1689 95.2304C85.5531 102.805 86.1055 134.141 86.0433 139.194C86.0239 140.776 88.3089 144.191 91.457 148.135C92.8704 149.906 94.4577 151.783 96.0886 153.649C97.0323 154.729 96.2191 156.977 97.1668 158.027C98.1093 159.071 100.813 158.917 101.709 159.885C105.964 164.484 109.421 167.985 109.421 167.985L123.273 168.155C123.429 157.858 116.378 148.666 107.318 139.783L105.943 92.7474Z" fill="#1B194D"/>
<path d="M91.9806 47.9129C90.6691 48.8595 89.2894 49.8347 87.6892 50.0692C86.0889 50.3038 84.2154 49.5302 83.7725 47.9746C83.231 46.0726 84.9485 44.3409 86.4922 43.1048L91.387 39.1851C92.2834 38.3902 93.2953 37.7359 94.3882 37.2447C95.5001 36.7555 96.774 36.7981 97.8508 37.3605C98.9205 38.0828 99.5391 39.3083 99.485 40.5979C99.4152 41.8691 98.9957 43.0963 98.2728 44.1442C96.4367 47.0061 93.5117 48.9943 90.175 49.6487" fill="#2F2E41"/>
<path d="M129.106 149.746H93.618C91.0048 149.746 88.8864 151.865 88.8864 154.478C88.8864 157.091 91.0048 159.21 93.618 159.21H106.63V195.88H116.094V159.21H129.106C131.719 159.21 133.837 157.091 133.837 154.478C133.837 151.865 131.719 149.746 129.106 149.746Z" fill="#3F3D56"/>
<path d="M94.1549 37.9857C94.2977 34.438 90.5172 31.6289 86.9747 31.8509C83.4321 32.073 80.3869 34.5648 78.3779 37.4922C76.3695 40.417 75.163 43.8048 73.5808 46.9805C71.9986 50.1562 69.8916 53.2656 66.7476 54.9113C63.6041 56.5545 59.2284 56.2613 57.0557 53.4557C55.6855 55.5336 55.3875 58.14 56.2533 60.4736C57.1428 62.7769 58.8016 64.7017 60.9484 65.9215C61.8029 66.4282 62.7157 66.8296 63.6668 67.1168C64.0589 66.0583 64.6107 65.066 65.3029 64.1743C64.9902 65.2299 64.8709 66.3333 64.9506 67.4314C66.4165 67.7123 67.9245 67.6886 69.3808 67.3616C72.2805 66.7129 74.7049 64.7358 75.9234 62.0258C77.2521 58.8806 76.5754 55.2945 76.8595 51.8922C77.1412 48.4893 79.1918 44.6046 82.6062 44.5492C85.2064 44.5064 84.8623 44.7208 86.5098 46.7327" fill="#2F2E41"/>
<path d="M117.767 56.6276C117.767 65.1206 110.882 72.0056 102.389 72.0056C93.8955 72.0056 85.8276 62.1633 85.8276 53.6703C85.8276 45.1773 93.8955 41.2496 102.389 41.2496C110.882 41.2496 117.767 48.1346 117.767 56.6276Z" fill="#2F2E41"/>
<path d="M109.967 75.0563C117.905 73.432 123.023 65.68 121.399 57.7418C119.775 49.8036 112.023 44.6852 104.084 46.3095C96.1461 47.9338 91.0277 55.6858 92.652 63.624C94.2763 71.5622 102.028 76.6806 109.967 75.0563Z" fill="#A0616A"/>
<path d="M125.456 58.402C121.112 59.5878 116.727 60.8309 115.034 58.402C114.705 56.7914 114.081 55.2555 113.195 53.8714C113.028 55.4214 112.664 56.9439 112.112 58.402C106.625 59.5946 101.497 59.8797 97.0654 58.402C96.4561 59.504 96.1024 60.729 96.0304 61.9862C95.8113 61.8486 95.5819 61.728 95.3443 61.6254C95.0593 61.4643 94.7187 61.4341 94.4098 61.5426C94.1962 61.6716 94.0542 61.8921 94.0253 62.14C93.9959 62.3867 94.0079 62.6366 94.0608 62.8793C94.1229 63.7253 94.3757 64.5463 94.8001 65.2807C95.1397 65.7921 95.6783 66.1376 96.2847 66.2329C96.8998 69.693 101.797 74.3714 101.797 74.3714C87.0106 74.9629 87.0106 64.9317 87.0106 55.4447L88.785 51.8959H94.6996V44.2069H111.261C119.099 44.2089 125.454 50.5631 125.456 58.402Z" fill="#2F2E41"/>
<path d="M260.211 299.818L0.707917 300C0.318979 300.002 0.0020385 299.688 9.78608e-06 299.299C-0.00201892 298.911 0.311633 298.594 0.700571 298.592H0.707917L260.211 298.41C260.6 298.411 260.915 298.727 260.913 299.116C260.912 299.503 260.599 299.817 260.211 299.818Z" fill="#CACACA"/>
<path d="M433.509 299.818L299.396 300C299.007 300.002 298.69 299.688 298.688 299.299C298.686 298.911 298.999 298.594 299.388 298.592H299.396L433.509 298.41C433.898 298.408 434.215 298.723 434.216 299.112C434.217 299.501 433.903 299.817 433.514 299.818H433.509Z" fill="#CACACA"/>
<path d="M266.142 87.5362H215.304C210.889 87.5313 207.311 83.9531 207.306 79.5376V45.8521C207.311 41.4367 210.889 37.8584 215.304 37.8535H266.142C270.558 37.8584 274.136 41.4367 274.141 45.8521V79.5376C274.136 83.9531 270.558 87.5313 266.142 87.5362ZM215.304 39.0364C211.542 39.0407 208.493 42.0897 208.489 45.8521V79.5376C208.493 83.3001 211.542 86.349 215.304 86.3533H266.142C269.905 86.349 272.954 83.3001 272.958 79.5376V45.8521C272.954 42.0897 269.905 39.0407 266.142 39.0364L215.304 39.0364Z" fill="#E6E6E6"/>
<path d="M230.367 48.4998H216.769V49.6827H230.367V48.4998Z" fill="#E6E6E6"/>
<path d="M246.934 53.2314H216.769V54.4144H246.934V53.2314Z" fill="#E6E6E6"/>
<path d="M246.934 57.3717H216.769V58.5546H246.934V57.3717Z" fill="#E6E6E6"/>
<path d="M255.214 61.5119H216.769V62.6948H255.214V61.5119Z" fill="#E6E6E6"/>
<path d="M236.879 65.6522H216.769V66.8351H236.879V65.6522Z" fill="#E6E6E6"/>
<path d="M253.44 69.7924H216.769V70.9753H253.44V69.7924Z" fill="#E6E6E6"/>
<path d="M223.275 73.9326H216.769V75.1155H223.275V73.9326Z" fill="#E6E6E6"/>
<path d="M216.326 23.0423C216.269 23.0423 216.211 23.0201 216.168 22.9758L214.906 21.6857C214.822 21.5998 214.822 21.4624 214.906 21.3765L216.168 20.0865C216.254 19.9992 216.394 19.9978 216.481 20.083C216.568 20.1685 216.57 20.3085 216.484 20.3958L215.374 21.5311L216.484 22.6665C216.57 22.7538 216.568 22.8939 216.481 22.9793C216.438 23.0214 216.382 23.0423 216.326 23.0423Z" fill="#CCCCCC"/>
<path d="M218.447 23.0423C218.391 23.0423 218.335 23.0214 218.292 22.9793C218.205 22.8938 218.203 22.7539 218.289 22.6665L219.399 21.5311L218.289 20.3958C218.203 20.3085 218.205 20.1684 218.292 20.083C218.379 19.9975 218.52 19.9991 218.605 20.0865L219.867 21.3764C219.951 21.4624 219.951 21.5998 219.867 21.6857L218.605 22.9758C218.562 23.0201 218.504 23.0423 218.447 23.0423Z" fill="#CCCCCC"/>
<path d="M284.468 19.8405H282.121C281.853 19.8405 281.637 20.0573 281.637 20.3249V22.6737C281.637 22.9413 281.853 23.158 282.121 23.158H284.468C284.735 23.158 284.954 22.9413 284.954 22.6737V20.3249C284.954 20.0573 284.735 19.8405 284.468 19.8405Z" fill="#CCCCCC"/>
<path d="M278.717 19.8405H276.371C276.103 19.8405 275.886 20.0573 275.886 20.3249V22.6737C275.886 22.9413 276.103 23.158 276.371 23.158H278.717C278.985 23.158 279.204 22.9413 279.204 22.6737V20.3249C279.204 20.0573 278.985 19.8405 278.717 19.8405Z" fill="#CCCCCC"/>
<path d="M289.886 19.951H287.54C287.272 19.951 287.055 20.1678 287.055 20.4354V22.7842C287.055 23.0518 287.272 23.2686 287.54 23.2686H289.886C290.154 23.2686 290.373 23.0518 290.373 22.7842V20.4354C290.373 20.1678 290.154 19.951 289.886 19.951Z" fill="#CCCCCC"/>
<path d="M254.517 20.8446H235.759C235.432 20.8446 235.169 21.11 235.169 21.4351C235.169 21.7603 235.432 22.0256 235.759 22.0256H254.517C254.842 22.0256 255.107 21.7602 255.107 21.4351C255.107 21.11 254.842 20.8446 254.517 20.8446Z" fill="#CCCCCC"/>
</g>
<defs>
<clipPath id="clip0_59_231">
<rect width="474.713" height="300" fill="white"/>
</clipPath>
</defs>
</svg>
