<svg width="308" height="29" viewBox="0 0 308 29" fill="none" xmlns="http://www.w3.org/2000/svg">
<path d="M213.514 26.8874C178.772 19.4597 139.989 23.49 104.838 24.1721C94.7307 24.3685 84.3895 25.6777 74.2918 25.1171C72.9748 25.0443 67.2288 24.7711 66.1509 23.3113C66.0102 23.1214 70.4908 22.3723 72.6676 22.0519C76.9002 21.4288 81.1309 20.9691 85.36 20.3111C96.4785 18.5822 107.791 17.7386 119.007 16.9615C147.798 14.9682 199.303 8.82556 227.442 17.4881C228.836 17.9173 224.526 17.4143 223.068 17.3744C220.672 17.3094 218.278 17.2154 215.881 17.1401C208.066 16.8955 200.185 16.4605 192.369 16.5289C167.18 16.7479 141.903 15.6956 116.721 16.6381C109.143 16.9221 101.59 17.5117 94.0093 17.7396C89.6182 17.8715 89.815 17.9832 85.2768 17.8292C83.3091 17.7622 77.8531 18.3543 79.4093 17.148C82.1501 15.0228 90.7167 15.5544 94.0299 15.1208C109.158 13.1433 124.249 10.5609 139.454 9.1735C178.442 5.61615 218.132 5.60778 257.209 7.09608C273.194 7.70489 289.345 5.34992 305.262 7.25262C266.64 2.26455 226.496 2.97277 187.663 3.11697C143.94 3.27938 100.267 3.29021 56.543 4.21154C38.5928 4.58952 21.0048 8.00797 3 7.75844" stroke="white" stroke-width="4.05049" stroke-miterlimit="1.5" stroke-linecap="round" stroke-linejoin="round"/>
</svg>
