<svg width="1385" height="698" viewBox="0 0 1385 698" fill="none" xmlns="http://www.w3.org/2000/svg">
<path d="M603.728 600.208C588.024 600.208 572.189 599.61 556.363 598.409C504.306 594.46 453.075 584.091 408.21 568.429L406.598 567.863L408.496 568.088C515.611 580.9 628.521 585.882 741.277 582.968C821.376 561.693 875.817 522.115 911.314 459.814C978.21 342.401 985.718 224.98 932.442 129.178C908.505 86.1278 850.885 13.6953 730.836 2.29955C724.192 1.82188 717.564 1.40041 710.889 1.02711L710.958 0.653809L719.578 1.04718C723.351 1.27598 727.094 1.56498 730.806 1.9142C794.013 6.4179 856.286 15.4815 916.214 28.9083C980.424 43.2985 1041.06 62.4893 1096.45 85.9551C1151.31 109.192 1199.99 136.178 1241.15 166.167C1282.83 196.541 1316.01 229.431 1339.76 263.923C1364.15 299.347 1378.57 336.332 1382.63 373.851C1384.82 394.121 1378.65 413.493 1364.28 431.423C1350.55 448.571 1328.97 464.824 1300.17 479.732C1210.3 526.254 1074.04 558.101 895.171 574.386C844.295 579.018 792.817 581.996 741.331 583.333C732.449 585.701 723.274 587.833 713.844 589.731C679.312 596.671 641.894 600.196 603.704 600.196L603.728 600.208ZM410.24 568.682C503.897 601.023 617.155 608.77 713.605 589.39C722.595 587.584 731.284 585.585 739.703 583.385C628.074 586.199 516.352 581.274 410.24 568.682ZM741.648 3.13044C786.643 8.90658 826.469 23.8386 860.276 47.6456C897.74 74.0256 920.574 106.495 933.137 129.085C961.21 179.573 972.661 235.392 967.159 294.992C962.182 348.932 943.623 404.425 912.001 459.931C893.812 491.858 871.102 517.287 842.589 537.674C826.23 549.367 807.617 559.566 787.253 567.983C773.51 573.663 758.67 578.665 742.898 582.931C793.843 581.579 844.727 578.616 895.07 574.032C1073.79 557.76 1209.92 525.949 1299.69 479.479C1358.55 449.009 1386.22 413.481 1381.93 373.883C1377.87 336.4 1363.46 299.451 1339.1 264.06C1245.11 127.544 1007.5 24.4688 741.648 3.13044Z" fill="white" fill-opacity="0.2"/>
<path d="M669.412 584.236C653.222 584.236 637.133 584.083 621.198 583.782C563.284 582.679 506.999 579.556 453.893 574.498C334.616 563.142 231.09 542.165 146.183 512.157C111.327 499.838 63.1596 479.146 31.6138 450.53C1.77348 423.46 -6.33674 395.623 7.50696 367.789C19.9539 342.762 48.4979 319.252 92.3286 297.914C127.439 280.818 172.404 265.063 225.974 251.083C319.692 226.625 426.19 210.305 542.519 202.566C649.943 195.421 761.302 195.802 873.502 203.702C930.613 207.724 1076.86 220.861 1201.21 255.936C1258.9 272.212 1303.67 291.038 1334.26 311.895C1369.62 336.011 1386.29 363.081 1383.8 392.351C1382.35 406.986 1375.04 421.565 1362.08 435.686C1324.02 477.171 1243.32 512.177 1122.23 539.741C1023.78 562.151 910.658 576.26 786.011 581.683C746.895 583.385 707.848 584.24 669.404 584.24L669.412 584.236ZM696.767 197.809C524.323 197.809 361.594 216.109 226.305 251.416C142.34 273.328 36.3441 311.321 8.20918 367.882C-16.978 418.502 34.7545 472.322 146.592 511.852C359.804 587.21 638.692 587.716 785.957 581.31C910.534 575.891 1023.58 561.79 1121.96 539.396C1242.88 511.872 1323.46 476.922 1361.44 435.522C1374.36 421.445 1381.64 406.914 1383.09 392.331C1387.76 337.468 1326.46 291.688 1200.87 256.261C1076.64 221.215 930.49 208.089 873.417 204.071C813.891 199.88 754.774 197.809 696.767 197.809Z" fill="white" fill-opacity="0.2"/>
<path d="M531.608 697.021C500.363 697.021 470.059 692.437 441.407 683.37C368.57 660.321 317.709 615.682 289.582 550.306C170.776 527.807 86.1706 496.37 37.3627 456.475C5.04533 430.059 -5.08665 402.189 7.23686 373.63C16.0493 353.215 36.02 333.125 66.6089 313.918C94.1034 296.654 129.708 280.618 169.572 267.548C236.337 245.656 314.345 228.974 408.064 216.55L410.031 216.289L408.349 216.888C242.194 275.925 181.047 398.725 272.034 490.638L272.073 490.702C276.348 512.068 282.39 531.849 290.192 550.025C326.452 556.881 365.908 562.906 408.496 568.088L408.612 568.116C494.22 598.092 597.732 606.63 692.6 591.537C781.929 577.328 850.831 544.184 886.605 498.224L890.209 493.383L890.88 493.516C859.805 538.396 823.413 576.116 779.621 608.838C754.596 627.539 702.246 661.907 632.835 682.005C601.289 691.137 569.944 696.154 539.687 696.917C536.986 696.985 534.278 697.017 531.592 697.017L531.608 697.021ZM290.385 550.458C318.489 615.605 369.203 660.084 441.778 683.053C500.741 701.71 564.905 701.248 632.503 681.68C701.791 661.622 754.056 627.298 779.05 608.625C819.308 578.548 853.308 544.233 882.67 504.016C864.597 525.102 839.333 543.329 807.455 558.278C774.505 573.727 735.945 585.035 692.832 591.895C647.195 599.156 597.57 600.99 549.31 597.197C498.927 593.239 451.485 583.566 408.287 568.445C365.861 563.283 326.537 557.282 290.385 550.458ZM406.281 217.177C313.511 229.564 236.198 246.146 169.958 267.865C83.8402 296.104 24.7846 334.682 7.93908 373.714C-4.33814 402.169 5.76298 429.946 37.9723 456.274C86.6414 496.057 170.961 527.41 289.397 549.872C281.642 531.753 275.623 512.052 271.363 490.774C226.714 445.653 216.474 392.355 242.541 340.699C255.173 315.664 275.661 292.27 303.426 271.169C331.661 249.714 366.263 231.551 406.281 217.177Z" fill="white" fill-opacity="0.2"/>
<path d="M272.258 491.685L271.394 490.81C226.722 445.681 216.474 392.375 242.541 340.703C255.05 315.913 275.252 292.736 302.615 271.795C307.994 260.018 313.928 248.446 320.395 237.11C343.143 197.227 372.768 159.873 408.45 126.087C449.741 86.9908 494.915 56.5928 542.735 35.7361C605.441 8.37676 673.046 -2.67377 743.662 2.8816C818.243 8.97484 890.973 21.2777 959.829 39.441C1084.38 72.2956 1190.05 122.812 1265.42 185.522C1334.91 243.336 1375.13 308.591 1382.6 375.235C1383.91 380.915 1384.31 386.623 1383.8 392.347L1383.08 392.339C1382.92 386.611 1382.52 380.883 1381.87 375.187C1371.47 330.239 1306.43 297.099 1265.51 280.393C1025.3 182.307 653.623 184.892 408.287 216.908C366.124 231.896 330.727 250.986 302.862 272.638C290.878 299.042 281.665 326.514 275.26 354.981C264.734 401.74 263.662 447.407 272.057 490.706L272.258 491.685ZM301.875 273.417C221.151 336.717 204.552 421.609 271.162 489.759C262.967 446.725 264.102 401.371 274.55 354.937C280.839 326.987 289.991 299.7 301.867 273.417H301.875ZM723.49 196.5C767.429 196.5 810.797 197.685 852.899 200.077C932.049 204.577 1006.3 213.243 1073.6 225.835C1146.43 239.462 1211.14 257.722 1265.96 280.104C1302.43 294.996 1331.17 311.501 1351.39 329.163C1366.79 342.618 1376.78 356.422 1381.27 370.407C1362.21 231.37 1200.11 103.251 959.504 39.7782C890.718 21.631 818.058 9.34412 743.554 3.2549C618.235 -6.60748 505.687 34.7808 409.067 126.272C363.076 169.819 327.803 218.28 303.595 271.044C332.193 249.349 367.297 231.025 407.94 216.586L408.056 216.558C509.507 203.316 618.073 196.5 723.49 196.5Z" fill="white" fill-opacity="0.2"/>
<path d="M533.313 696.905C493.595 696.905 456 689.66 421.182 675.257C375.129 656.207 345.597 629.47 328.929 610.399C288.749 564.415 266.895 510.431 263.978 449.944C261.501 398.629 272.52 343.392 296.735 285.768C322.578 224.265 361.872 168.956 413.519 121.379C478.625 61.4056 548.646 24.3524 627.58 8.09974C652.551 2.95782 677.669 0.400904 702.215 0.505267C752.698 0.894625 798.473 12.3184 838.26 34.4636C877.762 56.4483 903.057 84.5302 917.325 104.215C935.521 129.322 948.855 157.171 956.966 186.983C964.111 213.275 967.414 241.959 966.781 272.24C964.242 393.009 903.991 507.701 797.123 595.186C765.847 620.791 733.205 641.813 700.101 657.672C657.327 678.167 612.316 690.824 566.325 695.287C555.174 696.371 544.17 696.909 533.321 696.909L533.313 696.905ZM700.803 0.866527C676.789 0.866527 652.25 3.4114 627.834 8.43692C549.063 24.6575 479.157 61.6544 414.137 121.551C362.52 169.097 323.257 224.37 297.43 285.84C260.205 374.441 235.565 502.644 329.577 610.239C349.919 633.516 427.093 708.417 566.178 694.914C647.666 687.002 725.157 653.377 796.497 594.977C903.296 507.553 963.509 392.933 966.048 272.228C967.414 207.013 951.255 152.094 916.646 104.339C888.935 66.1019 824.224 1.80981 702.2 0.870541C701.737 0.870541 701.266 0.866527 700.803 0.866527Z" fill="white" fill-opacity="0.2"/>
<path d="M1383.09 392.343L1382.72 383.107L1381.93 373.879L1380.72 364.663L1379.09 355.463L1377.05 346.279L1374.58 337.123L1371.69 327.999L1368.4 318.911L1364.68 309.864L1360.56 300.864L1356.03 291.913L1351.1 283.018L1345.78 274.183L1340.05 265.417L1333.93 256.718L1327.43 248.1L1320.54 239.559L1313.27 231.101L1305.63 222.736L1297.62 214.467L1289.25 206.295L1280.52 198.227L1271.44 190.263L1262.01 182.415L1252.24 174.684L1242.15 167.074L1231.73 159.588L1220.99 152.23L1209.94 145.009L1198.59 137.92L1186.94 130.976L1175 124.176L1162.78 117.525L1150.3 111.023L1137.54 104.68L1124.54 98.4949L1111.28 92.4699L1097.79 86.6095L1084.07 80.9216L1070.13 75.4024L1055.99 70.0558L1041.63 64.8898L1027.09 59.9044L1012.36 55.0956L997.463 50.4755L982.4 46.0441L967.183 41.8013L951.826 37.7471L936.331 33.8897L920.713 30.2249L904.979 26.7608L889.136 23.4935L873.209 20.4227L857.189 17.5608L841.1 14.8995L824.949 12.4389L808.736 10.1871L792.485 8.14395L776.195 6.30554L759.882 4.67184L743.554 3.25089L727.217 2.03866L710.889 1.03517L710.974 0.661865L727.31 1.66536L743.662 2.8816L760.005 4.30657L776.334 5.93625L792.639 7.77867L808.914 9.82581L825.142 12.0817L841.308 14.5422L857.421 17.2035L873.448 20.0735L889.399 23.1442L905.249 26.4116L920.998 29.8837L936.632 33.5485L952.143 37.41L967.514 41.4681L982.747 45.7149L997.825 50.1544L1012.73 54.7785L1027.48 59.5873L1042.03 64.5807L1056.4 69.7507L1070.56 75.1013L1084.51 80.6246L1098.25 86.3205L1111.75 92.1849L1125.02 98.2139L1138.04 104.408L1150.8 110.758L1163.3 117.264L1175.52 123.92L1187.48 130.727L1199.14 137.679L1210.5 144.772L1221.56 152.001L1232.31 159.367L1242.74 166.857L1252.85 174.476L1262.62 182.215L1272.05 190.07L1281.14 198.038L1289.88 206.114L1298.26 214.295L1306.28 222.571L1313.92 230.945L1321.2 239.41L1328.09 247.956L1334.6 256.586L1340.73 265.292L1346.46 274.067L1351.8 282.91L1356.73 291.813L1361.26 300.772L1365.39 309.783L1369.1 318.839L1372.4 327.935L1375.29 337.066L1377.76 346.234L1379.81 355.422L1381.44 364.631L1382.65 373.859L1383.43 383.095L1383.81 392.335L1383.09 392.343Z" fill="white" fill-opacity="0.2"/>
<path d="M1148.08 533.531L1147.44 533.363C1176.65 503.507 1195.86 471.615 1204.52 438.568C1220.03 379.45 1201.83 318.285 1151.89 261.696C1102.66 205.921 1025.19 157.32 927.835 121.146L928.252 120.841C1025.71 157.051 1103.27 205.704 1152.54 261.539C1177.01 289.256 1193.99 318.397 1203.03 348.161C1212.27 378.563 1213.01 408.997 1205.24 438.616C1196.56 471.704 1177.32 503.635 1148.08 533.531Z" fill="white" fill-opacity="0.2"/>
<path d="M778.417 581.996L778.147 581.651C817.85 573.165 853.786 561.123 884.961 545.858C999.477 489.791 1030.29 396.261 963.463 307.58L964.134 307.443C979.336 327.617 989.7 348.619 994.932 369.865C1000.29 391.617 1000.14 413.115 994.476 433.755C982.245 478.343 944.542 517.202 885.455 546.131C854.211 561.428 818.205 573.495 778.425 582L778.417 581.996Z" fill="white" fill-opacity="0.2"/>
<path d="M601.166 601.966C572.946 601.966 544.348 600.043 516.12 596.162C474.535 590.442 434.787 580.68 397.978 567.148L398.395 566.843C435.134 580.35 474.805 590.092 516.305 595.8C591.427 606.132 669.227 602.56 735.382 585.745C802.517 568.682 856.217 537.702 886.605 498.517L887.269 498.658C856.811 537.927 802.987 568.975 735.69 586.078C694.244 596.615 648.23 601.966 601.166 601.966Z" fill="white" fill-opacity="0.2"/>
<path d="M533.66 680.704C486.288 680.704 438.838 676.281 392.538 667.542C296.813 649.479 209.853 613.594 147.68 566.506C112.021 539.504 85.0749 509.387 67.5735 476.994L68.268 476.894C85.7462 509.247 112.662 539.327 148.274 566.297C210.37 613.325 297.206 649.154 392.785 667.193C492.098 685.934 595.664 684.69 684.398 663.685L684.698 664.026C639.656 674.687 590.794 680.295 539.463 680.684C537.534 680.7 535.589 680.704 533.66 680.704Z" fill="white" fill-opacity="0.2"/>
<path d="M382.614 656.179C337.395 648.552 294.289 636.378 254.518 619.997C217.053 604.571 183.547 585.858 154.926 564.383C123.72 540.965 99.2196 514.971 82.1272 487.117C65.274 459.666 56.0217 431.106 54.625 402.23C53.0354 369.383 61.7552 336.46 80.5376 304.38L81.2243 304.489C62.4651 336.533 53.753 369.415 55.3426 402.222C58.1515 460.296 93.7253 517.812 155.52 564.174C214.63 608.525 295.354 641.074 382.838 655.826L382.614 656.183V656.179Z" fill="white" fill-opacity="0.2"/>
<path d="M270.553 486.242C239.362 452.726 226.498 414.552 233.366 375.854C237.001 355.386 246.153 335.272 260.567 316.081C275.09 296.746 294.652 278.763 318.705 262.623C346.176 244.191 379.25 228.307 417 215.422L417.393 215.735C379.705 228.6 346.693 244.452 319.268 262.852C270.9 295.309 241.438 334.393 234.076 375.886C227.224 414.516 240.056 452.621 271.193 486.078L270.553 486.242Z" fill="white" fill-opacity="0.2"/>
<path d="M294.004 294.213L293.371 294.036C329.585 259.275 383.918 230.507 450.49 210.842C517.609 191.017 592.978 181.725 668.455 183.973C713.489 185.313 757.227 190.592 798.45 199.655L798.172 200.001C757.027 190.953 713.374 185.687 668.416 184.346C515.256 179.778 368.284 222.908 294.004 294.213Z" fill="white" fill-opacity="0.2"/>
<path d="M1165.69 248.173C1134.38 217.943 1094.35 190.917 1046.71 167.849C963.64 127.624 857.073 99.8877 746.64 89.7564C637.056 79.7013 526.8 86.4809 427.787 109.365L427.494 109.024C476.85 97.6157 529.601 90.1577 584.289 86.8542C638.26 83.5949 692.924 84.4458 746.764 89.3871C802.339 94.4848 856.518 103.853 907.787 117.228C958.756 130.522 1005.67 147.462 1047.2 167.576C1094.89 190.672 1134.97 217.726 1166.33 247.996L1165.69 248.173Z" fill="white" fill-opacity="0.2"/>
<path d="M557.273 584.838C428.613 584.838 314.677 574.49 218.535 554.071C143.66 538.167 47.6414 508.725 15.4166 458.751C0.361368 435.401 1.75808 410.739 19.5682 385.451C34.5848 364.129 61.5314 342.517 97.4911 322.949C133.304 303.461 177.034 285.531 227.478 269.647C271.309 255.847 321.529 243.187 376.742 232.02C438.39 219.549 503.65 209.626 570.692 202.521C635.914 195.609 703.411 191.306 771.303 189.725C904.006 186.634 1024.17 194.522 1128.44 213.158C1236.04 232.394 1310.3 260.142 1349.16 295.634C1363.19 308.451 1371.95 322.062 1375.19 336.083C1380.81 359.292 1371.23 383.147 1346.73 406.986C1326.46 426.703 1296.6 445.954 1257.99 464.21C1218.03 483.107 1170.66 500.287 1117.22 515.284C1070.06 528.514 1016.92 540.387 959.258 550.575C896.12 561.729 830.204 570.299 763.339 576.043C696.999 581.743 629.293 584.702 562.096 584.838C560.483 584.838 558.863 584.842 557.258 584.842L557.273 584.838ZM826.677 189.444C808.489 189.444 790.046 189.661 771.349 190.098C632.356 193.333 499.684 207.555 377.012 232.369C258.661 256.309 164.796 286.871 98.0235 323.206C18.4029 366.533 -11.4606 415.893 16.1034 458.634C48.2433 508.472 144.077 537.854 218.812 553.726C316.073 574.382 431.607 584.73 562.119 584.461C698.434 584.188 831.987 572.664 959.049 550.217C1081.94 528.506 1182.36 499.477 1257.54 463.933C1307.1 440.499 1388.21 392.728 1374.51 336.131C1371.27 322.158 1362.54 308.595 1348.56 295.823C1309.79 260.411 1235.66 232.719 1128.23 213.516C1038.74 197.52 937.512 189.452 826.685 189.452L826.677 189.444Z" fill="white" fill-opacity="0.2"/>
<path d="M457.257 593.32C377.544 593.32 304.483 588.13 238.93 577.769C166.756 566.366 72.5507 543.121 33.6664 497.144C17.145 477.616 12.9394 456.069 21.1654 433.097C28.2416 413.332 44.8401 392.516 69.1708 372.907C98.1237 349.566 136.645 327.224 183.64 306.5C223.797 288.794 271.432 271.715 325.225 255.743C385.477 237.853 450.436 222.463 518.296 209.999C584.281 197.881 653.346 188.468 723.567 182.022C862.328 169.282 988.797 169.627 1099.46 183.05C1148.83 189.038 1192.25 197.396 1228.5 207.888C1272.69 220.677 1306.53 236.749 1329.07 255.655C1339.06 264.028 1346.85 273.26 1352.24 283.09C1362.99 303.943 1361.34 326.237 1347.34 349.353C1335.41 369.042 1314.86 388.939 1286.28 408.495C1252.64 431.516 1210.05 453.316 1159.71 473.293C1115.98 490.642 1065.15 507.111 1008.63 522.236C945.9 539.022 879.251 553.156 810.534 564.25C742.45 575.241 672.143 583.277 601.575 588.134C551.378 591.59 503.21 593.32 457.257 593.32ZM917.094 173.095C855.808 173.095 791.212 176.194 723.691 182.391C579.621 195.617 445.675 220.408 325.58 256.068C207.747 291.058 124.067 329.339 69.765 373.108C38.6205 398.212 -7.39398 447.684 34.3146 496.992C73.0986 542.84 167.103 566.028 239.13 577.412C342.387 593.729 464.295 597.213 601.474 587.768C743.021 578.026 883.696 555.251 1008.3 521.911C1129.61 489.45 1222.94 451.216 1285.71 408.275C1329.67 378.202 1376.76 332.089 1351.55 283.199C1346.19 273.4 1338.42 264.2 1328.46 255.855C1287.17 221.227 1210.06 196.854 1099.29 183.419C1042.56 176.539 981.659 173.095 917.086 173.095H917.094Z" fill="white" fill-opacity="0.2"/>
<path d="M395.2 606.931C372.907 606.931 351.037 606.433 329.554 605.434C241.183 601.32 123.766 586.4 66.2693 538.673C41.5914 518.19 32.0536 494.246 37.9337 467.513C42.8492 445.147 58.8459 420.959 84.1797 397.565C140.82 345.267 234.585 296.814 362.867 253.555C442.727 226.625 529.833 204.123 621.754 186.674C745.413 163.204 864.373 151.323 975.586 151.323C980.262 151.323 984.908 151.343 989.553 151.387C1048.72 151.921 1101.71 155.811 1147.01 162.952C1203.85 171.907 1249.11 186.072 1281.54 205.054C1296.11 213.58 1307.87 223.141 1316.49 233.473C1334.74 255.992 1337.6 281.26 1324.97 308.575C1314.53 331.138 1293.96 354.551 1263.82 378.166C1198.37 429.432 1098.87 476.099 968.062 516.873C889.337 541.411 804.353 561.713 715.465 577.216C602.146 596.976 494.722 606.935 395.192 606.935L395.2 606.931ZM975.586 151.696C864.458 151.696 745.583 163.57 622.001 187.027C530.126 204.464 443.074 226.955 363.253 253.868C235.071 297.095 141.383 345.504 84.797 397.746C28.3959 449.823 21.8599 501.114 66.8712 538.472C124.214 586.066 241.399 600.954 329.616 605.061C446.894 610.52 576.634 601.031 715.233 576.858C804.075 561.364 889.013 541.074 967.692 516.548C1098.4 475.802 1197.84 429.171 1263.22 377.953C1301.95 347.603 1360.3 288.493 1315.83 233.614C1307.24 223.318 1295.52 213.793 1281 205.295C1222.39 170.988 1124.32 152.973 989.538 151.757C984.9 151.716 980.247 151.692 975.578 151.692L975.586 151.696Z" fill="white" fill-opacity="0.2"/>
<path d="M354.641 623.665C270.892 623.665 168.685 614.457 107.422 575.967C78.4694 557.78 63.1672 535.265 61.9403 509.046C60.914 487.101 70.0659 462.588 88.4085 438.159C108.009 412.06 136.53 385.832 173.191 360.203C205 337.966 243.876 315.527 288.749 293.511C379.288 249.088 483.826 211.609 599.452 182.11C716.144 152.343 829.463 134.324 936.269 128.556C993.411 125.469 1045.33 126.007 1090.56 130.153C1147.22 135.347 1193.98 146.269 1229.56 162.614C1245.31 169.852 1258.57 178.132 1268.97 187.22C1292.65 207.848 1301.75 232.41 1296.02 260.227C1291.33 283.018 1276.98 307.355 1253.39 332.563C1229.47 358.124 1197.53 383.573 1158.46 408.19C1123.99 429.914 1082.97 451.622 1036.54 472.711C989.229 494.198 937.975 514.112 884.197 531.906C830.767 549.583 774.389 565.322 716.638 578.673C598.897 605.895 486.365 620.92 382.167 623.328C373.285 623.533 364.071 623.649 354.633 623.649L354.641 623.665ZM1007.16 126.93C984.707 126.93 961.102 127.596 936.347 128.933C829.625 134.697 716.383 152.704 599.769 182.452C484.204 211.934 379.728 249.393 289.242 293.788C192.962 341.028 125.611 389.646 89.0798 438.295C65.1504 470.158 35.7962 530.376 107.978 575.726C169.063 614.104 271.062 623.288 354.641 623.288C364.079 623.288 373.261 623.172 382.143 622.967C486.257 620.563 598.704 605.546 716.36 578.343C833.329 551.297 940.9 515.665 1036.08 472.438C1134.9 427.558 1207.8 380.446 1252.75 332.406C1283.29 299.78 1325.91 237.556 1268.36 187.417C1257.99 178.361 1244.78 170.113 1229.09 162.899C1177.02 138.976 1102.56 126.93 1007.16 126.93Z" fill="white" fill-opacity="0.2"/>
<path d="M343.352 641.492C277.837 641.492 208.665 634.014 157.511 609.568C123.99 593.552 103.17 572.214 95.639 546.143C89.3499 524.391 92.645 499.408 105.154 473.883C117.986 447.696 139.022 420.798 167.666 393.937C192.522 370.631 223.959 346.572 261.123 322.415C341.77 269.993 440.126 223.635 553.461 184.627C662.328 147.156 770.901 121.772 876.164 109.176C998.929 94.4889 1096.25 99.1852 1165.45 123.141C1183.43 129.366 1198.88 136.808 1211.37 145.258C1239.64 163.987 1254.37 187.65 1255.12 215.587C1255.73 238.282 1247.28 263.221 1230 289.705C1212.95 315.824 1188.36 342.381 1156.9 368.632C1129.12 391.817 1095.16 415.464 1055.93 438.909C1012.9 464.631 965.246 488.956 914.285 511.205C863.717 533.282 809.454 553.517 752.983 571.347C643.654 605.867 536.855 627.997 435.543 637.12C407.493 639.645 375.877 641.488 343.359 641.488L343.352 641.492ZM1004.72 101.2C965.67 101.2 922.819 103.978 876.311 109.545C771.133 122.129 662.644 147.498 553.847 184.944C440.582 223.928 342.279 270.262 261.679 322.652C181.039 375.071 130.063 424.567 105.848 473.98C77.9833 530.826 96.9971 580.146 157.997 609.295C234.323 645.766 350.983 644.358 435.412 636.755C536.639 627.639 643.353 605.526 752.605 571.03C867.02 534.904 968.888 490.369 1055.38 438.669C1138.75 388.827 1197.27 338.668 1229.3 289.589C1251.73 255.209 1279.17 190.776 1210.79 145.487C1198.34 137.069 1182.95 129.655 1165.04 123.454C1122.21 108.626 1068.56 101.196 1004.72 101.196L1004.72 101.2Z" fill="white" fill-opacity="0.2"/>
<path d="M352.596 658.599C347.881 658.599 343.221 658.547 338.621 658.447C290.531 657.387 249.054 650.756 215.332 638.726C182.436 626.993 158.175 610.231 143.235 588.908C130.441 570.649 124.762 548.993 126.822 526.286C131.437 475.401 166.493 421.039 233.976 360.095C268.631 328.798 309.807 298.323 356.37 269.511C401.427 241.626 451.786 215.129 506.058 190.752C612.509 142.942 720.828 109.252 828.005 90.6194C936.061 71.8339 1025.57 71.2398 1094.08 88.8532C1110.7 93.1281 1126.14 98.6554 1139.95 105.278C1169.23 119.717 1189.18 138.731 1199.25 161.787C1207.77 181.283 1209.15 203.228 1203.37 227.011C1196.47 255.35 1180.75 285.017 1156.67 315.182C1135.91 341.185 1108.19 368.448 1074.29 396.213C1036.59 427.092 992.956 456.832 944.611 484.609C896.953 511.988 844.495 537.589 788.696 560.698C737.974 581.699 686.99 599.618 637.141 613.956C580.469 630.252 523.644 642.395 468.246 650.037C426.993 655.729 388.162 658.603 352.596 658.603V658.599ZM980.177 76.442C934.695 76.442 883.943 81.2828 828.228 90.9686C721.144 109.586 612.903 143.251 506.528 191.033C394.961 241.14 303.472 298.083 234.601 360.279C167.172 421.172 132.147 475.477 127.54 526.302C124.893 555.48 132.833 608.846 215.741 638.421C292.707 665.877 395.439 659.695 468.061 649.672C572.166 635.306 679.891 605.273 788.241 560.401C900.348 513.975 999.052 457.129 1073.67 396.008C1147.48 335.557 1189.67 280.26 1202.65 226.959C1211.6 190.207 1207.89 139.305 1139.46 105.547C1125.7 98.9484 1110.32 93.4452 1093.76 89.1864C1060.72 80.6928 1022.76 76.446 980.177 76.446V76.442Z" fill="white" fill-opacity="0.2"/>
<path d="M377.259 673.784C342.835 673.784 311.328 670.376 283.139 663.585C241.469 653.542 209.815 636.273 189.057 612.254C171.764 592.248 162.465 567.682 162.172 541.218C161.616 490.879 186.85 436.626 239.331 375.352C290.33 315.808 360.12 259.428 446.778 207.784C531.746 157.139 622.178 117.517 715.565 90.0133C764.936 75.4746 811.885 65.1346 855.121 59.2862C909.886 51.8764 960.245 51.4268 1004.79 57.9496C1025.76 61.0203 1045.11 65.7327 1062.32 71.9544C1099.89 85.6421 1126.46 106.073 1141.31 132.69C1153.35 154.293 1157.52 179.369 1153.69 207.214C1149.97 234.22 1139.33 262.651 1122.06 291.716C1106.83 317.354 1085.98 344.256 1060.08 371.671C1002.99 432.122 928.337 488.069 838.206 537.955C751.1 586.167 660.082 622.706 567.683 646.561C518.103 659.362 471.055 667.751 427.849 671.504C410.371 673.021 393.487 673.78 377.251 673.78L377.259 673.784ZM938.808 53.7509C873.271 53.7509 798.62 65.9856 715.928 90.3425C622.618 117.826 532.248 157.42 447.326 208.033C360.722 259.649 290.963 315.993 239.995 375.504C187.56 436.73 162.342 490.935 162.897 541.218C163.206 569.248 175.576 637.245 283.439 663.243C358.253 681.278 453.777 675.55 567.366 646.228C659.696 622.393 750.645 585.882 837.689 537.702C927.773 487.84 1002.39 431.925 1059.44 371.511C1114.52 313.191 1145.99 257.907 1152.98 207.19C1157.96 171.008 1152.74 105.359 1061.92 72.2635C1044.78 66.0618 1025.5 61.3695 1004.61 58.3108C983.843 55.2682 961.889 53.7509 938.808 53.7509Z" fill="white" fill-opacity="0.2"/>
<path d="M411.721 685.69C390.686 685.69 370.491 684.213 351.23 681.254C303.024 673.852 265.02 657.102 238.282 631.461C210.818 605.133 201.573 575.373 198.656 555.046C194.906 528.943 197.514 500.934 206.412 471.8C214.213 446.243 227.116 418.968 244.771 390.742C281.047 332.739 333.552 276.676 400.825 224.105C465.977 173.187 538.313 130.607 615.812 97.5476C664.867 76.6226 710.387 61.2771 754.974 50.6401C811.707 37.1049 865.785 31.8064 915.697 34.8892C938.507 36.2981 959.99 39.6618 979.545 44.884C1024.46 56.7373 1057.66 77.6783 1078.23 107.125C1094.14 129.924 1102.4 158.239 1102.11 189.006C1101.85 215.222 1095.89 242.95 1084.38 271.422C1074.08 296.89 1059.03 323.7 1039.66 351.115C999.075 408.532 943.145 463.443 873.417 514.324C807.602 562.352 735.173 602.062 658.153 632.348C608.08 652.04 559.55 666.491 513.905 675.305C478.1 682.218 443.923 685.682 411.721 685.682V685.69ZM887.824 34.4195C806.244 34.4195 715.064 55.6977 616.267 97.8406C538.823 130.876 466.541 173.428 401.42 224.313C334.184 276.857 281.711 332.892 245.45 390.862C207.338 451.802 192.259 505.502 199.366 555.022C203.888 586.544 227.764 661.911 351.431 680.897C370.931 683.891 391.257 685.385 412.354 685.385C485.261 685.385 567.49 667.538 657.713 632.055C734.672 601.789 807.046 562.107 872.823 514.112C942.512 463.254 998.419 408.375 1038.98 350.991C1079.91 293.081 1100.9 238.583 1101.38 189.01C1101.78 147.458 1086.44 73.5238 979.213 45.2252C959.736 40.023 938.33 36.6754 915.604 35.2705C906.475 34.7045 897.208 34.4235 887.817 34.4235L887.824 34.4195Z" fill="white" fill-opacity="0.2"/>
<path d="M449.248 693.657C436.916 693.657 424.84 693.079 413.049 691.923C375.114 688.202 341.569 678.228 313.349 662.272C289.134 648.58 269.094 630.397 255.405 609.689C224.615 563.114 219.353 507.256 239.323 438.925C249.617 403.687 266.309 367.958 288.934 332.731C310.803 298.673 338.382 264.811 370.908 232.076C435.504 167.07 511.513 114.314 596.821 75.2819C634.88 57.8652 672.383 44.2859 708.288 34.9172C753.431 23.1401 797.393 17.641 838.924 18.5802C857.876 19.0097 875.894 20.7879 892.478 23.8747C928.977 30.5179 960.222 43.4389 985.348 62.2725C1006.31 77.9873 1022.52 97.3187 1033.52 119.729C1046.77 146.711 1052.76 176.659 1051.34 208.751C1050.11 236.536 1043.59 265.686 1031.43 297.874C1017.97 333.506 998.397 369.219 973.271 404.016C948.508 438.303 918.197 471.929 883.164 503.956C851.108 533.266 816.785 559.815 781.165 582.859C740.714 609.03 697.215 631.577 651.88 649.873C613.713 665.274 576.117 676.787 540.127 684.084C508.697 690.458 478.262 693.657 449.232 693.657H449.248ZM829.787 18.8532C757.752 18.8532 679.59 37.9116 597.3 75.5629C512.061 114.567 436.106 167.283 371.548 232.249C304.714 299.507 260.467 369.062 240.041 438.982C220.093 507.252 225.341 563.05 256.092 609.568C273.67 636.157 317.455 682.165 413.188 691.554C425.11 692.722 437.279 693.308 449.664 693.308C511.714 693.308 579.397 678.657 651.455 649.576C736.539 615.24 814.292 566.181 882.554 503.772C953.879 438.556 1003.74 369.259 1030.74 297.806C1056.93 228.504 1057.61 170.285 1032.84 119.825C1018.74 91.1131 981.736 40.5167 892.254 24.2319C875.74 21.1572 857.791 19.3871 838.908 18.9576C835.883 18.8893 832.835 18.8532 829.787 18.8532Z" fill="white" fill-opacity="0.2"/>
<path d="M490.431 697.519C444.301 697.519 402.546 688.411 366.224 670.404C325.92 650.431 302.245 624.38 289.482 606.048C258.746 561.906 247.009 510.451 253.591 448.74C260.436 384.584 286.657 319.409 331.537 255.032C374.527 193.361 430.025 139.987 496.489 96.3955C571.541 47.1719 645.382 18.8653 722.24 9.85385C747.373 6.90758 772.19 6.4259 796.004 8.42486C907.826 18.4398 957.876 79.7053 977.754 115.334C1004.05 162.458 1011.31 216.057 999.94 279.181C988.18 344.476 957.344 409.579 908.289 472.679C862.097 532.094 804.793 582.454 737.974 622.353C657.381 670.481 576.673 695.741 498.094 697.434C495.524 697.491 492.97 697.519 490.431 697.519ZM766.734 7.58594C752.165 7.58594 737.334 8.465 722.394 10.2151C645.706 19.2064 571.989 47.473 497.045 96.6243C430.627 140.184 375.168 193.522 332.209 255.157C287.36 319.501 261.146 384.636 254.309 448.76C247.734 510.423 259.456 561.83 290.153 605.92C331.229 664.909 408.928 698.968 498.063 697.065C576.441 695.375 656.972 670.159 737.434 622.112C804.199 582.241 861.456 531.922 907.617 472.543C956.649 409.475 987.47 344.408 999.222 279.149C1010.58 216.069 1003.34 162.518 977.06 115.438C957.228 79.894 907.301 18.781 795.88 8.79415C786.312 7.99135 776.581 7.58995 766.734 7.58995V7.58594Z" fill="white" fill-opacity="0.2"/>
</svg>
